# xmcd CD database file
#
# Track frame offsets:
#	150
#	15002
#	34350
#	49357
#
# Disc length: 1160 seconds
#
# Revision: 0
# Processed by: cddbd v1.5PL3 Copyright (c) Steve Scherf et al.
# Submitted via: CDex 1.51
#
DISCID=28048604
DTITLE=時野リカ[南 央美] - 円盤皇女ワるきゅーレ 十二月の夜想曲 B-myself
DYEAR=2003
DGENRE=Anime
TTITLE0=B-myself
TTITLE1=B-myself [Precocious girl mix]
TTITLE2=B-myself [オリジナル・カラオケ]
TTITLE3=ボーナストラック「リカ、『ヴァルハラ日和』を読む」
EXTD=YEAR: 2003
EXTT0=
EXTT1=
EXTT2=
EXTT3=
PLAYORDER=
